<svg width="29" height="28" viewBox="0 0 29 28" fill="none" xmlns="http://www.w3.org/2000/svg">
<g id="bell">
<g id="Group 74">
<path id="Path 28" d="M24.1389 13.96C23.6258 13.3582 23.2116 12.6787 22.9119 11.9469C22.6865 11.3772 22.5728 10.7696 22.5769 10.157V9.93591C22.5769 7.83115 21.7408 5.81263 20.2526 4.32434C18.7643 2.83605 16.7456 2 14.6409 2C12.5356 2 10.5166 2.83629 9.02794 4.32495C7.53928 5.81361 6.70287 7.8327 6.70287 9.93799V10.161C6.70702 10.7702 6.59396 11.3744 6.36986 11.9409C6.07004 12.6746 5.65517 13.3559 5.14086 13.959C4.83607 14.4679 4.6347 15.0318 4.54821 15.6187C4.46171 16.2055 4.49183 16.8036 4.63683 17.3788C4.78183 17.954 5.03882 18.4949 5.39318 18.9706C5.74754 19.4463 6.19229 19.8474 6.70189 20.151C6.70762 20.1556 6.71407 20.1593 6.72094 20.162L6.77489 20.193C6.90672 20.262 7.04298 20.3221 7.18285 20.3729C7.23685 20.3939 7.29788 20.416 7.36388 20.439C7.55384 20.5095 7.74791 20.5686 7.94494 20.616C7.98294 20.624 8.01985 20.635 8.05785 20.64H8.06591L8.29296 20.694C8.45196 20.73 8.6239 20.7649 8.8109 20.8009L9.10289 20.8529C9.30289 20.8869 9.5239 20.921 9.7589 20.953C9.9939 20.985 10.2449 21.0159 10.5139 21.0439C11.8846 21.1803 13.2614 21.247 14.6389 21.2439C15.4389 21.2439 16.1609 21.232 16.8159 21.204C17.9609 21.154 18.8929 21.0639 19.6479 20.9559C19.9709 20.9099 20.2629 20.856 20.5229 20.809C21.2424 20.7192 21.9386 20.4956 22.5759 20.1499C23.0855 19.8466 23.5303 19.4458 23.8848 18.9703C24.2392 18.4949 24.4964 17.9541 24.6416 17.3792C24.7868 16.8042 24.8171 16.2062 24.7308 15.6195C24.6446 15.0328 24.4434 14.4688 24.1389 13.96Z" fill="#747785"/>
<path id="Path 29" d="M17.7419 22.927C16.7529 22.5552 15.6965 22.3963 14.6419 22.4609C13.5873 22.3964 12.531 22.5553 11.5419 22.927C11.3855 23.0193 11.2612 23.1574 11.1859 23.3227C11.1106 23.488 11.0879 23.6724 11.1209 23.851C11.2866 24.3592 11.5887 24.812 11.9943 25.1602C12.3999 25.5083 12.8934 25.7383 13.4209 25.825C14.2224 26.0422 15.0673 26.0422 15.8688 25.825C16.3964 25.7385 16.89 25.5085 17.2956 25.1604C17.7013 24.8122 18.0034 24.3593 18.1689 23.851C18.2015 23.6718 18.1779 23.4868 18.1015 23.3215C18.0251 23.1561 17.8995 23.0183 17.7419 22.927Z" fill="#747785"/>
</g>
</g>
</svg>
