<svg width="31" height="31" viewBox="0 0 31 31" fill="none" xmlns="http://www.w3.org/2000/svg">
<g id="super g">
<path id="Shape" d="M15.8962 5.84057C18.0603 5.80727 20.1532 6.61351 21.7356 8.09008L25.998 3.92216C23.2634 1.35974 19.6434 -0.0453416 15.8962 0.00111641C13.0964 0.000469455 10.3515 0.778697 7.9687 2.24877C5.58586 3.71884 3.65895 5.8228 2.40344 8.32535L7.28732 12.1171C7.8845 10.3013 9.03659 8.71881 10.5811 7.59271C12.1257 6.4666 13.9848 5.85375 15.8962 5.84057Z" fill="#EA4335"/>
<path id="Shape_2" d="M30.3955 15.4401C30.4133 14.4019 30.306 13.3652 30.076 12.3526H15.8964V17.9583H24.2206C24.0627 18.9411 23.7076 19.8818 23.1768 20.7238C22.646 21.5659 21.9503 22.2919 21.1317 22.8581L25.8979 26.5497C27.3833 25.1156 28.5515 23.3859 29.3269 21.4723C30.1024 19.5587 30.4679 17.5037 30.3999 15.4401H30.3955Z" fill="#4285F4"/>
<path id="Shape_3" d="M7.30482 18.0914C6.9746 17.1299 6.80436 16.1207 6.80089 15.1041C6.80691 14.0891 6.97105 13.0813 7.28739 12.1169L2.40351 8.32507C1.34424 10.4281 0.79248 12.7501 0.79248 15.1048C0.79248 17.4596 1.34424 19.7816 2.40351 21.8846L7.30482 18.0914Z" fill="#FBBC05"/>
<path id="Shape_4" d="M15.8965 30.2075C19.5754 30.3116 23.1544 29.0025 25.898 26.5493L21.1318 22.8577C19.5864 23.8938 17.7562 24.4218 15.8965 24.3681C13.9867 24.3567 12.1289 23.7443 10.5868 22.6177C9.04467 21.4911 7.89645 19.9074 7.30502 18.0915L2.42114 21.8847C3.67326 24.3862 5.59702 26.4896 7.97699 27.9596C10.357 29.4295 13.0991 30.2079 15.8965 30.2075Z" fill="#34A853"/>
</g>
</svg>
