<svg width="27" height="26" viewBox="0 0 27 26" fill="none" xmlns="http://www.w3.org/2000/svg">
<g id="ph:user-fill">
<path id="Vector" d="M23.9538 22.3437C23.8825 22.4673 23.7799 22.5698 23.6564 22.6411C23.5328 22.7125 23.3927 22.75 23.25 22.75H3.75001C3.60745 22.7498 3.46745 22.7122 3.34405 22.6408C3.22065 22.5694 3.1182 22.4668 3.04699 22.3433C2.97577 22.2199 2.9383 22.0798 2.93834 21.9373C2.93838 21.7947 2.97592 21.6547 3.04719 21.5312C4.59399 18.8571 6.97766 16.9396 9.75946 16.0306C8.38346 15.2114 7.31439 13.9633 6.71643 12.4777C6.11847 10.9922 6.02469 9.35143 6.44948 7.80743C6.87427 6.26343 7.79415 4.90156 9.06785 3.93096C10.3415 2.96036 11.8986 2.43469 13.5 2.43469C15.1014 2.43469 16.6585 2.96036 17.9322 3.93096C19.2059 4.90156 20.1257 6.26343 20.5505 7.80743C20.9753 9.35143 20.8815 10.9922 20.2836 12.4777C19.6856 13.9633 18.6166 15.2114 17.2406 16.0306C20.0224 16.9396 22.406 18.8571 23.9528 21.5312C24.0243 21.6546 24.062 21.7947 24.0622 21.9373C24.0624 22.0799 24.025 22.2201 23.9538 22.3437Z" fill="#747785"/>
</g>
</svg>
